<?xml version="1.0" standalone="no"?><svg width="630" height="630" xmlns="http://www.w3.org/2000/svg" xmlns:xlink="http://www.w3.org/1999/xlink"><style>body { font-family: sans-serif; padding: 0px; margin: 0px; }line.bg { stroke: rgba(3, 148, 172, 0.7); stroke-width: 1; }circle.bg { fill: rgba(100, 220, 240, 0.7); }line.bg-sub { stroke: rgba(140, 240, 240, 0.5); stroke-width: 1; }rect, path, circle { fill: none; stroke-width: 2; stroke-linejoin: round; }pattern line { vector-effect: non-scaling-stroke; }.zoomed-out pattern line { vector-effect: none; }text { stroke-width: 0; font-family: sans-serif; }text tspan { vector-effect: non-scaling-stroke; white-space: pre; }.ui-dark { background: rgb(51, 51, 51); }.ui-dark line.bg { stroke: rgba(172, 232, 242, 0.57); stroke-width: 1; }.ui-dark circle.bg { fill: rgba(100, 220, 240, 0.3); }.ui-dark line.bg-sub { stroke: rgba(140, 240, 240, 0.1); stroke-width: 1; }rect.marquee { fill: rgba(234, 255, 231, 0.3); stroke: rgb(98, 137, 95); stroke-width: 1; stroke-dasharray: 4; vector-effect: non-scaling-stroke; }rect.highlight { fill: blue; opacity: 0.5; }.bg rect { stroke: rgba(3, 148, 172, 0.7); stroke-width: 1; }</style><g transform="translate(-735, -75)"><defs><pattern id="pattern_bg" viewBox="0 0 60 60" width="0.027285129604365622" height="0.04746835443037975" patternTransform="scale(0.5 0.5) translate(714.3761937580877 624.8573729835009)"><line class="bg" x1="0" y1="0" x2="60" y2="0"></line><line class="bg" x1="0" y1="0" y2="60" x2="0"></line><line class="bg-sub" x1="0" y1="15" x2="60" y2="15"></line><line class="bg-sub" y1="0" x1="15" y2="60" x2="15"></line><line class="bg-sub" x1="0" y1="30" x2="60" y2="30"></line><line class="bg-sub" y1="0" x1="30" y2="60" x2="30"></line><line class="bg-sub" x1="0" y1="45" x2="60" y2="45"></line><line class="bg-sub" y1="0" x1="45" y2="60" x2="45"></line></pattern></defs><g class="bg" style="visibility: hidden;"><rect x="-714.3761937580877" y="-624.8573729835009" width="4398" height="2528" style="fill: url(&quot;#pattern_bg&quot;);"></rect></g><g class="u" data-layer="Layer 1" style="visibility: visible;"><path d="M 930 180 Q 1170 180, 1170 180 Q 1260 180, 1260 270 Q 1260 510, 1260 510 Q 1260 600, 1170 600 Q 930 600, 930 600 Q 840 600, 840 510 Q 840 270, 840 270 Q 840 180, 930 180" class="" stroke="rgba(0, 0, 0, 0)" style="fill: rgb(255, 255, 255); stroke-width: 2;" data-ti=""></path></g><g class="u current" data-layer="Layer 2" style="visibility: visible;"><path d="M 960 285 L 1140 375 L 1140 405 L 960 315 Z" class="" stroke="rgba(0, 0, 0, 1)" data-ti="" style="fill: rgb(255, 0, 77); stroke-width: 2;"></path><path d="M 960 495 L 960 465 L 1140 375 L 1140 405 Z" class="" stroke="rgba(0, 0, 0, 1)" data-ti="" style="fill: rgb(255, 0, 77); stroke-width: 2;"></path></g><g class="u" data-layer="Layer 3" style="visibility: visible;"><circle cx="960" cy="300" class="" style="stroke: rgb(0, 0, 0); fill: rgb(41, 173, 255); stroke-width: 2;" r="45" data-ti=""></circle><circle cx="960" cy="480" class="" style="stroke: rgb(0, 0, 0); fill: rgb(41, 173, 255); stroke-width: 2;" r="45" data-ti=""></circle><circle cx="1140" cy="390" class="" style="stroke: rgb(0, 0, 0); fill: rgb(41, 173, 255); stroke-width: 2;" r="45" data-ti=""></circle></g></g></svg>